PathFileType	4	(X/Y/Z)	Patient4_TMGait_0pt4_02_right_43.trc.trc
DataRate	CameraRate	NumFrames	NumMarkers	Units	OrigDataRate	OrigDataStartFrame	OrigNumFrames
75.675675675676	75.675675675676	6	33	mm	75.675675675676	124	       141
Frame#	Time	Sacral			L.Shoulder			Chest			R.Shoulder			Neck			R.ASIS			L.ASIS			R.Thigh.Superior			R.Thigh.Lateral			R.Thigh.Inferior			R.Patella			L.Thigh.Superior			L.Thigh.Lateral			L.Thigh.Inferior			L.Patella			L.Shank.Superior			L.Shank.Lateral			L.Shank.Inferior			R.Shank.Superior			R.Shank.Lateral			R.Shank.Inferior			R.Heel			R.Midfoot.Superior			R.Midfoot.Lateral			R.Toe			L.Heel			L.Midfoot.Lateral			L.Midfoot.Superior			L.Toe			L.Elbow			L.Wrist			R.Elbow			R.Wrist			
		X1	Y1	Z1	X2	Y2	Z2	X3	Y3	Z3	X4	Y4	Z4	X5	Y5	Z5	X6	Y6	Z6	X7	Y7	Z7	X8	Y8	Z8	X9	Y9	Z9	X10	Y10	Z10	X11	Y11	Z11	X12	Y12	Z12	X13	Y13	Z13	X14	Y14	Z14	X15	Y15	Z15	X16	Y16	Z16	X17	Y17	Z17	X18	Y18	Z18	X19	Y19	Z19	X20	Y20	Z20	X21	Y21	Z21	X22	Y22	Z22	X23	Y23	Z23	X24	Y24	Z24	X25	Y25	Z25	X26	Y26	Z26	X27	Y27	Z27	X28	Y28	Z28	X29	Y29	Z29	X30	Y30	Z30	X31	Y31	Z31	X32	Y32	Z32	X33	Y33	Z33	

124	58.285357142857	832.057960645604	1002.881012088518	472.151284342513	1030.205971728639	1428.717921694864	295.688359899557	1113.902382668411	1362.461467785626	468.255276185463	1012.024320948224	1437.169884534073	631.773658927446	994.798598695974	1493.379033629537	451.210945174525	1053.640700414564	942.525220679604	607.067568900337	1056.243926877281	958.513148544043	330.700860665987	1113.609360462741	750.075184504361	583.258264751066	1050.913076262629	635.137319943489	652.452879156863	1134.911634285444	589.148866413026	572.776254518411	1155.688232105215	508.818710547351	585.735698703196	1060.641189520282	730.907984347705	357.916078619312	946.900915029109	635.353680501428	291.158977241698	1007.668361148108	542.639029447772	354.748016020609	994.768786451782	476.534804377667	362.473775058711	961.190908944134	410.722490685194	353.961113007344	859.553609448667	306.456333180940	302.164767293073	898.208897294073	189.363630317046	372.804875359036	1139.360579955904	420.994838638351	599.126469314353	1083.951493951337	310.424896884986	665.154980251057	1148.901996349459	221.704757308269	612.664743797260	1049.871598992139	42.880669359399	588.325297933562	1215.588846889949	105.931218764801	625.067751453503	1133.117228973743	39.325060064224	662.781736461522	1338.320663542350	62.789958947372	653.176342912648	760.387877987023	39.570568277326	417.965900112348	832.257182489361	35.375206481382	335.756961956705	916.611935203706	95.259038004503	361.165503808608	1044.522699594675	40.845081454618	329.632408293473	1088.324940818387	1096.958354524682	149.558769794478	1340.750534872439	1041.680452682504	170.476128587600	883.010805134029	1115.236886506161	739.376845441186	887.114452553780	853.165926446250	744.729373689383	
125	58.298571428571	833.683590485001	1001.812412728716	475.185883297763	1029.828534122352	1428.119601718342	298.558481081965	1114.391569778676	1362.250377864476	470.888641289689	1012.595599532654	1436.436001074581	634.767703034542	994.801412927742	1492.710760515454	454.177768464079	1055.978765492271	941.604769413892	609.358257499842	1057.735411619611	958.045249402813	333.130717404103	1116.223570488769	748.942886846379	584.786655717787	1052.123746924361	633.777156251321	652.821824263508	1136.207380585691	588.296021642125	573.249081352696	1155.412316775344	507.111002955135	585.408084822222	1060.990956995215	729.818079773863	359.241131625537	946.861496330823	635.099339999642	293.007553761539	1007.453963170127	541.831490995564	356.058074754336	994.494492338810	475.291198548308	363.512713895189	959.759933305911	409.898842580924	354.981800042515	856.555816434065	307.059324194179	303.120049130520	894.091897404621	189.101131060533	373.011004661573	1138.243902013196	418.575953538766	598.714555913616	1081.037971314554	308.769134633316	664.459742374770	1144.038993648716	219.050944920534	611.500526933957	1041.399334451897	42.831001639433	586.942717500797	1208.026065634539	102.971083095209	623.813786717054	1124.373102052758	38.231185800682	661.782551133080	1330.249799768884	57.974826641467	652.451037544597	755.009241366730	39.980585462460	417.764319498469	826.969617281685	35.441255757540	335.705758200851	911.436662544932	95.307932105709	361.063032740408	1039.257950654615	40.674130684501	329.560962871110	1086.193396452422	1095.492318126241	152.875697802940	1337.926473659625	1035.630093247534	173.037590444719	887.232542584844	1112.771421758421	742.517667336926	896.062349377268	850.692061443359	747.045815733910	
126	58.311785714286	835.308453310411	1000.903658655390	478.356778043979	1029.403208814319	1427.714575902096	301.567069298943	1114.891255807478	1362.207330461045	473.622343782974	1013.239803195135	1435.854942277667	637.908183994854	994.819467413259	1492.222358202358	457.298835322941	1058.371714747917	940.913426902682	611.729341974248	1059.249006280796	957.755906173743	335.626710866134	1119.044532387636	748.171434447966	586.238439803700	1053.827654977142	632.837419661087	653.338783952367	1137.885935245273	587.812696165897	573.741136748396	1155.575883975725	505.683860119591	585.202543873279	1061.594725388648	728.900916610105	360.599408780952	947.282764573763	634.860932209576	294.990337806972	1007.939030127653	541.109069914593	357.431799152976	994.957719632647	473.993947870589	364.564301939954	958.924415018649	409.040857280268	356.031881546030	853.974205159664	307.836255510846	304.167563842349	890.191143506569	188.930031560682	373.214281341647	1137.586627690685	416.528335522623	598.475768230048	1078.804016915081	307.509137539339	664.187462792703	1139.654103833207	216.766870929577	610.593011139496	1033.392883265151	42.846816374906	586.079513827363	1200.824153999273	100.640373748688	622.872501146145	1116.211330592575	37.457255928644	661.200054484578	1322.665883634704	54.113406010073	651.905527683894	749.653416526244	40.692611145346	417.526432568254	821.710365172741	35.610180830267	335.646942307896	906.379580335137	95.399393445660	360.891217255134	1034.018090431742	40.468071403126	329.473264558851	1083.597296058747	1094.073791506766	156.407829107354	1334.391285715283	1028.707133746917	175.545403942865	891.991869235519	1110.293318181024	745.899514124419	906.186264127527	848.292576317657	749.764283945721	
127	58.325000000000	836.928071543661	1000.208529555658	481.652940461981	1028.956846310615	1427.546255174101	304.691999922748	1115.400232008137	1362.361583412674	476.438594827021	1013.961156487524	1435.479641642662	641.162543107118	994.860221601140	1491.956632419942	460.547875282939	1060.768644792997	940.493949279891	614.194583100916	1060.783018184024	957.696375366645	338.185196617663	1121.926355011776	747.763127585585	587.643480211389	1055.926255974950	632.321752894051	654.070213661798	1139.796037484358	587.650888627495	574.294278467771	1156.062079026876	504.552124956974	585.202420207974	1062.519317151655	728.241840798411	362.037578962618	948.225790518235	634.658425900143	297.089282626481	1009.231296432877	540.508801338989	358.836798615808	996.259043439768	472.668271135400	365.560340728439	958.768742382213	408.179496900976	357.055777146372	851.877225903764	308.848798914626	305.283021073822	886.573277748533	188.917946258258	373.380743210123	1137.294446731651	414.890872545405	598.457557325142	1077.216632801019	306.634553198692	664.337952189995	1135.809605491979	214.913890941713	609.962504170948	1026.100180528970	42.899195289799	585.668032784618	1194.184843452618	98.973712163968	622.238659428941	1108.858403091188	36.977255506696	660.973547416349	1315.766270662177	51.287316631408	651.547177206862	744.356806424299	41.835000402915	417.252968976278	816.496197546853	35.946806360897	335.577870393919	901.492412094295	95.550691186600	360.622500714816	1028.802235953262	40.227466101334	329.369806125804	1080.568605020205	1092.760584620189	160.170293937442	1330.082653395018	1020.909599070012	177.978381572007	897.252931731076	1107.903324426829	749.491067279528	917.445997775502	846.115057525170	752.864584181888	
128	58.338214285714	838.540804543932	999.758822280021	485.075253858868	1028.501222473808	1427.637274649737	307.912042551957	1115.911011351738	1362.729692910349	479.318643147468	1014.757953908524	1435.346488658638	644.498804434863	994.918909286773	1491.935486229445	463.898794892714	1063.131027532090	940.362329233215	616.769931086422	1062.333056969762	957.904863618070	340.808541801697	1124.736655077349	747.685930337776	589.042498472198	1058.287270045305	632.188369924274	655.058412890560	1141.776088338305	587.730066349697	574.953478597250	1156.725565153112	503.689612530743	585.465996652107	1063.839555009240	727.918346229902	363.610903023716	949.760453780767	634.504341337203	299.278897781839	1011.445372585661	540.061064125502	360.235055254925	998.510878512831	471.339229381104	366.424123007651	959.388168274197	407.345374390042	357.993691119332	850.349691605986	310.160595531447	306.436868559675	883.323486265009	189.138990374331	373.473733543792	1137.218581138275	413.645656190274	598.680232736053	1076.122797723162	306.095100514311	664.856779603708	1132.442707660889	213.491753040306	609.598906669487	1019.579623811983	42.967910965537	585.609859338309	1188.152835242208	97.919072107423	621.877020565878	1102.345809245210	36.740356961318	661.019102897190	1309.576820536228	49.432651678340	651.363123124433	739.172176004684	43.553835754193	416.945682529741	811.352391539956	36.537090833540	335.495162988004	896.836360075674	95.785760573508	360.231984026151	1023.607699712198	39.956144882443	329.253273123513	1077.148114035073	1091.601545025284	164.174925061081	1324.923179425949	1012.244925688030	180.329591038095	902.981806590234	1105.689628227518	753.272917510328	929.822415902037	844.313146144564	756.309030152725	
129	58.351428571429	840.143251630329	999.559378996070	488.635748797009	1028.030349004798	1427.983309813501	311.209463237429	1116.411877770456	1363.311064809681	482.244122659307	1015.626653567466	1435.468747349251	647.889975025282	994.982307648404	1492.155726834245	467.329142400369	1065.435658316954	940.504772020235	619.467448225679	1063.884064310023	958.398008575196	343.503685293106	1127.359466923334	747.867621718079	590.488862190483	1060.732090470929	632.355490868187	656.321194837988	1143.653176284043	587.946009456705	575.768113221756	1157.394451250229	503.037935597472	586.019919862470	1065.629780572382	727.988994631279	365.372756863740	951.965174735822	634.400064952395	301.527394704651	1014.696817396351	539.786906807544	361.588763331889	1001.834297450454	470.030772980420	367.082916828174	960.888861154388	406.565974182273	358.791384942032	849.496420518530	311.832385152981	307.597591415636	880.544443400609	189.669334594716	373.460554481073	1137.173758160239	412.732263864387	599.142003720978	1075.290814213262	305.810188913202	665.654921696107	1129.408003838872	212.451855623679	609.471489658271	1013.751653774058	43.038903129716	585.795945069754	1182.659196882475	97.367561140906	621.733604654680	1096.566406403874	36.682965607781	661.245984684118	1304.003218624307	48.386160730765	651.325654469782	734.170731167299	46.008942438038	416.606420138176	806.315755808157	37.490588775614	335.394833112935	892.481308078311	96.137920238764	359.702272034694	1018.431217325494	39.659704418895	329.128801330381	1073.381852661845	1090.626922349144	168.427689826195	1318.819348189521	1002.735369394208	182.607841355659	909.148892588205	1103.721305979726	757.242168449748	943.319017264913	843.042549667768	760.042669745285	
